<svg width="80" height="80" viewBox="0 0 80 80" fill="none" xmlns="http://www.w3.org/2000/svg">
<rect width="80" height="80" rx="20" fill="#322030" fill-opacity="0.61"/>
<path d="M51.6368 43.2891L45.3868 40.1641C45.1407 40.0415 44.8667 39.9859 44.5924 40.0031C44.3181 40.0202 44.0531 40.1094 43.8243 40.2617L40.9551 42.1758C39.638 41.4517 38.5542 40.3679 37.8301 39.0508L39.7442 36.1816C39.8965 35.9528 39.9857 35.6878 40.0028 35.4135C40.02 35.1392 39.9644 34.8652 39.8418 34.6191L36.7168 28.3691C36.5873 28.1076 36.3871 27.8875 36.1389 27.7339C35.8907 27.5803 35.6044 27.4992 35.3125 27.5C33.2405 27.5 31.2534 28.3231 29.7883 29.7882C28.3231 31.2534 27.5 33.2405 27.5 35.3125C27.5052 39.8693 29.3177 44.238 32.5398 47.4602C35.762 50.6824 40.1307 52.4948 44.6875 52.5C45.7135 52.5 46.7294 52.2979 47.6773 51.9053C48.6251 51.5127 49.4864 50.9372 50.2118 50.2118C50.9373 49.4863 51.5127 48.6251 51.9053 47.6772C52.298 46.7294 52.5 45.7135 52.5 44.6875C52.5002 44.3972 52.4196 44.1126 52.2671 43.8656C52.1146 43.6186 51.8964 43.419 51.6368 43.2891ZM44.6875 49.375C40.9592 49.3709 37.3848 47.888 34.7484 45.2516C32.1121 42.6153 30.6292 39.0408 30.625 35.3125C30.6247 34.2287 31 33.1784 31.6869 32.3401C32.3738 31.5019 33.3299 30.9275 34.3926 30.7148L36.6348 35.207L34.7266 38.0469C34.584 38.2608 34.4964 38.5065 34.4715 38.7624C34.4467 39.0183 34.4853 39.2763 34.584 39.5137C35.702 42.1707 37.8157 44.2844 40.4727 45.4023C40.7108 45.5055 40.9708 45.5477 41.2292 45.5252C41.4877 45.5027 41.7365 45.4161 41.9532 45.2734L44.8067 43.3711L49.2989 45.6133C49.0845 46.6772 48.5077 47.6338 47.6667 48.3198C46.8258 49.0058 45.7728 49.3787 44.6875 49.375ZM40 19.6875C36.4931 19.6867 33.0458 20.5939 29.9935 22.3208C26.9412 24.0476 24.388 26.5353 22.5824 29.5416C20.7768 32.5479 19.7803 35.9706 19.6899 39.4763C19.5994 42.982 20.4182 46.4515 22.0664 49.5469L19.8496 56.1973C19.666 56.7479 19.6394 57.3388 19.7727 57.9037C19.906 58.4686 20.194 58.9852 20.6044 59.3956C21.0149 59.806 21.5315 60.094 22.0964 60.2273C22.6613 60.3607 23.2522 60.334 23.8028 60.1504L30.4532 57.9336C33.1773 59.3825 36.1958 60.1918 39.2794 60.3C42.363 60.4082 45.4308 59.8125 48.2498 58.5581C51.0688 57.3036 53.565 55.4235 55.5489 53.0603C57.5328 50.6971 58.9522 47.9131 59.6995 44.9194C60.4468 41.9257 60.5022 38.8012 59.8616 35.7829C59.221 32.7646 57.9012 29.9319 56.0024 27.4998C54.1036 25.0678 51.6757 23.1002 48.903 21.7466C46.1302 20.3929 43.0856 19.6888 40 19.6875ZM40 57.1875C36.9785 57.1896 34.01 56.3939 31.3946 54.8809C31.2031 54.7698 30.9902 54.7007 30.77 54.6782C30.5498 54.6556 30.3273 54.6801 30.1172 54.75L22.8125 57.1875L25.2481 49.8828C25.3183 49.6729 25.3431 49.4505 25.3209 49.2303C25.2987 49.0101 25.2299 48.7971 25.1192 48.6055C23.2246 45.3299 22.4639 41.5207 22.9552 37.7687C23.4464 34.0167 25.1621 30.5317 27.8361 27.8543C30.5102 25.1769 33.993 23.4568 37.7444 22.9608C41.4957 22.4648 45.3059 23.2207 48.5839 25.1111C51.8618 27.0016 54.4243 29.9209 55.8738 33.4163C57.3233 36.9117 57.5787 40.7878 56.6005 44.4431C55.6223 48.0985 53.4651 51.3289 50.4636 53.6332C47.4621 55.9375 43.7841 57.1869 40 57.1875Z" fill="#FCFDEB"/>
</svg>
