<svg width="80" height="80" viewBox="0 0 80 80" fill="none" xmlns="http://www.w3.org/2000/svg">
<rect width="80" height="80" rx="20" fill="#322030" fill-opacity="0.61"/>
<path d="M55.6855 29.7813C56.1631 28.2406 56.3163 26.6178 56.1355 25.015C55.9546 23.4122 55.4437 21.8642 54.6348 20.4688C54.4976 20.2312 54.3003 20.0339 54.0627 19.8968C53.8251 19.7596 53.5556 19.6875 53.2812 19.6875C51.4613 19.6837 49.6657 20.1056 48.0379 20.9195C46.4101 21.7334 44.9952 22.9168 43.9062 24.375H39.2188C38.1298 22.9168 36.7149 21.7334 35.0871 20.9195C33.4593 20.1056 31.6637 19.6837 29.8438 19.6875C29.5694 19.6875 29.2999 19.7596 29.0623 19.8968C28.8247 20.0339 28.6274 20.2312 28.4902 20.4688C27.6813 21.8642 27.1704 23.4122 26.9895 25.015C26.8087 26.6178 26.9619 28.2406 27.4395 29.7813C26.4741 31.4663 25.957 33.3707 25.9375 35.3125V36.875C25.9408 39.5188 26.9005 42.0721 28.6395 44.0634C30.3785 46.0548 32.7792 47.3497 35.3984 47.709C34.3293 49.0771 33.749 50.7637 33.75 52.5V54.0625H29.0625C27.8193 54.0625 26.627 53.5687 25.7479 52.6896C24.8689 51.8105 24.375 50.6182 24.375 49.375C24.375 48.3491 24.1729 47.3332 23.7803 46.3853C23.3877 45.4375 22.8122 44.5762 22.0868 43.8508C21.3613 43.1253 20.5001 42.5498 19.5522 42.1572C18.6044 41.7646 17.5885 41.5625 16.5625 41.5625C16.1481 41.5625 15.7507 41.7271 15.4576 42.0202C15.1646 42.3132 15 42.7106 15 43.125C15 43.5394 15.1646 43.9369 15.4576 44.2299C15.7507 44.5229 16.1481 44.6875 16.5625 44.6875C17.8057 44.6875 18.998 45.1814 19.8771 46.0605C20.7561 46.9395 21.25 48.1318 21.25 49.375C21.25 51.447 22.0731 53.4342 23.5382 54.8993C25.0034 56.3644 26.9905 57.1875 29.0625 57.1875H33.75V60.3125C33.75 60.7269 33.9146 61.1244 34.2076 61.4174C34.5007 61.7104 34.8981 61.875 35.3125 61.875C35.7269 61.875 36.1243 61.7104 36.4174 61.4174C36.7104 61.1244 36.875 60.7269 36.875 60.3125V52.5C36.875 51.2568 37.3689 50.0645 38.2479 49.1855C39.127 48.3064 40.3193 47.8125 41.5625 47.8125C42.8057 47.8125 43.998 48.3064 44.8771 49.1855C45.7561 50.0645 46.25 51.2568 46.25 52.5V60.3125C46.25 60.7269 46.4146 61.1244 46.7076 61.4174C47.0007 61.7104 47.3981 61.875 47.8125 61.875C48.2269 61.875 48.6243 61.7104 48.9174 61.4174C49.2104 61.1244 49.375 60.7269 49.375 60.3125V52.5C49.376 50.7637 48.7957 49.0771 47.7266 47.709C50.3458 47.3497 52.7465 46.0548 54.4855 44.0634C56.2245 42.0721 57.1842 39.5188 57.1875 36.875V35.3125C57.168 33.3707 56.6509 31.4663 55.6855 29.7813ZM54.0625 36.875C54.0625 38.947 53.2394 40.9342 51.7743 42.3993C50.3091 43.8644 48.322 44.6875 46.25 44.6875H36.875C34.803 44.6875 32.8159 43.8644 31.3507 42.3993C29.8856 40.9342 29.0625 38.947 29.0625 36.875V35.3125C29.0817 33.7501 29.5494 32.226 30.4102 30.9219C30.5706 30.7104 30.6745 30.4615 30.7121 30.1988C30.7497 29.936 30.7197 29.6679 30.625 29.4199C30.218 28.3703 30.0221 27.2507 30.0486 26.1253C30.0751 24.9998 30.3234 23.8907 30.7793 22.8614C32.058 22.9989 33.2894 23.4225 34.3822 24.1008C35.4749 24.779 36.401 25.6945 37.0918 26.7793C37.2326 26.9994 37.4263 27.1808 37.6552 27.3067C37.8842 27.4326 38.1411 27.4991 38.4023 27.5H44.7207C44.983 27.5 45.241 27.434 45.4711 27.3081C45.7012 27.1821 45.8958 27.0003 46.0371 26.7793C46.7278 25.6944 47.6539 24.7788 48.7466 24.1006C49.8394 23.4223 51.0708 22.9988 52.3496 22.8614C52.8049 23.8909 53.0525 25.0002 53.0783 26.1257C53.1041 27.2511 52.9076 28.3706 52.5 29.4199C52.4056 29.6656 52.374 29.9309 52.4081 30.1918C52.4422 30.4527 52.5409 30.701 52.6953 30.9141C53.5646 32.2182 54.0393 33.7454 54.0625 35.3125V36.875Z" fill="#FCFDEB"/>
</svg>
