<svg width="80" height="80" viewBox="0 0 80 80" fill="none" xmlns="http://www.w3.org/2000/svg">
<rect width="80" height="80" rx="20" fill="#322030" fill-opacity="0.61"/>
<path d="M59.9297 33.7627L41.1797 21.2627C40.9229 21.0914 40.6212 21 40.3125 21C40.0038 21 39.7021 21.0914 39.4453 21.2627L20.6953 33.7627C20.4813 33.9055 20.3058 34.099 20.1845 34.3259C20.0632 34.5528 19.9998 34.8062 20 35.0635V55.376C20 56.2048 20.3292 56.9997 20.9153 57.5857C21.5013 58.1718 22.2962 58.501 23.125 58.501H57.5C58.3288 58.501 59.1237 58.1718 59.7097 57.5857C60.2958 56.9997 60.625 56.2048 60.625 55.376V35.0635C60.6252 34.8062 60.5618 34.5528 60.4405 34.3259C60.3192 34.099 60.1437 33.9055 59.9297 33.7627ZM34.2031 46.001L23.125 53.8135V38.0967L34.2031 46.001ZM37.4004 47.5635H43.2246L54.2852 55.376H26.3398L37.4004 47.5635ZM46.4219 46.001L57.5 38.0967V53.8135L46.4219 46.001ZM40.3125 24.4405L56.3105 35.1065L43.2246 44.4385H37.4043L24.3184 35.1065L40.3125 24.4405Z" fill="#FCFDEB"/>
</svg>
