<svg width="80" height="80" viewBox="0 0 80 80" fill="none" xmlns="http://www.w3.org/2000/svg">
<rect width="80" height="80" rx="20" fill="#322030" fill-opacity="0.61"/>
<path d="M57.1875 19.6875H22.8125C21.9837 19.6875 21.1888 20.0167 20.6028 20.6028C20.0167 21.1888 19.6875 21.9837 19.6875 22.8125V57.1875C19.6875 58.0163 20.0167 58.8112 20.6028 59.3972C21.1888 59.9833 21.9837 60.3125 22.8125 60.3125H57.1875C58.0163 60.3125 58.8112 59.9833 59.3972 59.3972C59.9833 58.8112 60.3125 58.0163 60.3125 57.1875V22.8125C60.3125 21.9837 59.9833 21.1888 59.3972 20.6028C58.8112 20.0167 58.0163 19.6875 57.1875 19.6875ZM57.1875 57.1875H22.8125V22.8125H57.1875V57.1875ZM33.75 36.875V49.375C33.75 49.7894 33.5854 50.1868 33.2924 50.4799C32.9993 50.7729 32.6019 50.9375 32.1875 50.9375C31.7731 50.9375 31.3757 50.7729 31.0826 50.4799C30.7896 50.1868 30.625 49.7894 30.625 49.375V36.875C30.625 36.4606 30.7896 36.0632 31.0826 35.7701C31.3757 35.4771 31.7731 35.3125 32.1875 35.3125C32.6019 35.3125 32.9993 35.4771 33.2924 35.7701C33.5854 36.0632 33.75 36.4606 33.75 36.875ZM50.9375 42.3438V49.375C50.9375 49.7894 50.7729 50.1868 50.4799 50.4799C50.1868 50.7729 49.7894 50.9375 49.375 50.9375C48.9606 50.9375 48.5632 50.7729 48.2701 50.4799C47.9771 50.1868 47.8125 49.7894 47.8125 49.375V42.3438C47.8125 41.3077 47.4009 40.3142 46.6684 39.5816C45.9358 38.8491 44.9423 38.4375 43.9062 38.4375C42.8702 38.4375 41.8767 38.8491 41.1441 39.5816C40.4116 40.3142 40 41.3077 40 42.3438V49.375C40 49.7894 39.8354 50.1868 39.5424 50.4799C39.2493 50.7729 38.8519 50.9375 38.4375 50.9375C38.0231 50.9375 37.6257 50.7729 37.3326 50.4799C37.0396 50.1868 36.875 49.7894 36.875 49.375V36.875C36.8769 36.4923 37.0193 36.1236 37.275 35.8388C37.5308 35.5541 37.8821 35.3731 38.2624 35.3302C38.6428 35.2874 39.0256 35.3856 39.3383 35.6062C39.651 35.8269 39.8719 36.1547 39.959 36.5273C41.016 35.8103 42.2483 35.3947 43.5237 35.3252C44.7991 35.2557 46.0693 35.535 47.198 36.1329C48.3266 36.7309 49.2711 37.625 49.9299 38.7192C50.5887 39.8135 50.9371 41.0665 50.9375 42.3438ZM34.5312 31.4062C34.5312 31.8698 34.3938 32.3229 34.1363 32.7084C33.8787 33.0938 33.5127 33.3942 33.0844 33.5716C32.6561 33.749 32.1849 33.7954 31.7303 33.705C31.2756 33.6145 30.858 33.3913 30.5302 33.0635C30.2024 32.7358 29.9792 32.3181 29.8888 31.8635C29.7984 31.4089 29.8448 30.9376 30.0222 30.5093C30.1995 30.0811 30.5 29.715 30.8854 29.4575C31.2708 29.2 31.724 29.0625 32.1875 29.0625C32.8091 29.0625 33.4052 29.3094 33.8448 29.749C34.2843 30.1885 34.5312 30.7846 34.5312 31.4062Z" fill="#FCFDEB"/>
</svg>
