<svg width="32" height="32" viewBox="0 0 32 32" fill="none" xmlns="http://www.w3.org/2000/svg">
<path d="M29.0611 26.9388L23.1248 21C24.9047 18.6806 25.7357 15.771 25.4492 12.8614C25.1627 9.95187 23.7802 7.26022 21.5821 5.3325C19.3841 3.40477 16.535 2.38533 13.613 2.48096C10.6909 2.57659 7.9146 3.78014 5.84728 5.84746C3.77996 7.91478 2.57641 10.6911 2.48078 13.6131C2.38514 16.5352 3.40459 19.3842 5.33231 21.5823C7.26004 23.7804 9.95169 25.1629 12.8613 25.4494C15.7708 25.7359 18.6804 24.9049 20.9998 23.125L26.9411 29.0675C27.0806 29.207 27.2463 29.3177 27.4286 29.3932C27.6109 29.4687 27.8063 29.5076 28.0036 29.5076C28.2009 29.5076 28.3963 29.4687 28.5786 29.3932C28.7609 29.3177 28.9265 29.207 29.0661 29.0675C29.2056 28.928 29.3163 28.7623 29.3918 28.58C29.4673 28.3977 29.5062 28.2023 29.5062 28.005C29.5062 27.8077 29.4673 27.6123 29.3918 27.43C29.3163 27.2477 29.2056 27.082 29.0661 26.9425L29.0611 26.9388ZM5.49983 14C5.49983 12.3189 5.99835 10.6755 6.93234 9.27766C7.86633 7.87985 9.19385 6.79038 10.747 6.14704C12.3002 5.50369 14.0093 5.33536 15.6581 5.66334C17.3069 5.99131 18.8215 6.80086 20.0102 7.9896C21.199 9.17835 22.0085 10.6929 22.3365 12.3417C22.6645 13.9906 22.4961 15.6996 21.8528 17.2528C21.2095 18.806 20.12 20.1335 18.7222 21.0675C17.3244 22.0015 15.681 22.5 13.9998 22.5C11.7462 22.4977 9.58554 21.6014 7.99198 20.0079C6.39842 18.4143 5.50215 16.2536 5.49983 14Z" fill="#FCFDEB"/>
</svg>
