<svg width="95" height="95" viewBox="0 0 95 95" fill="none" xmlns="http://www.w3.org/2000/svg">
<path d="M29.6876 20.7813V8.9063C29.6876 8.11894 30.0004 7.36383 30.5571 6.80708C31.1139 6.25033 31.869 5.93755 32.6563 5.93755C33.4437 5.93755 34.1988 6.25033 34.7555 6.80708C35.3123 7.36383 35.6251 8.11894 35.6251 8.9063V20.7813C35.6251 21.5687 35.3123 22.3238 34.7555 22.8805C34.1988 23.4373 33.4437 23.7501 32.6563 23.7501C31.869 23.7501 31.1139 23.4373 30.5571 22.8805C30.0004 22.3238 29.6876 21.5687 29.6876 20.7813ZM44.5313 23.7501C45.3187 23.7501 46.0738 23.4373 46.6305 22.8805C47.1873 22.3238 47.5001 21.5687 47.5001 20.7813V8.9063C47.5001 8.11894 47.1873 7.36383 46.6305 6.80708C46.0738 6.25033 45.3187 5.93755 44.5313 5.93755C43.744 5.93755 42.9889 6.25033 42.4321 6.80708C41.8754 7.36383 41.5626 8.11894 41.5626 8.9063V20.7813C41.5626 21.5687 41.8754 22.3238 42.4321 22.8805C42.9889 23.4373 43.744 23.7501 44.5313 23.7501ZM56.4063 23.7501C57.1937 23.7501 57.9488 23.4373 58.5055 22.8805C59.0623 22.3238 59.3751 21.5687 59.3751 20.7813V8.9063C59.3751 8.11894 59.0623 7.36383 58.5055 6.80708C57.9488 6.25033 57.1937 5.93755 56.4063 5.93755C55.619 5.93755 54.8638 6.25033 54.3071 6.80708C53.7504 7.36383 53.4376 8.11894 53.4376 8.9063V20.7813C53.4376 21.5687 53.7504 22.3238 54.3071 22.8805C54.8638 23.4373 55.619 23.7501 56.4063 23.7501ZM92.0313 44.5313V47.5001C92.0301 51.2761 90.5899 54.9098 88.0039 57.6613C85.4178 60.4128 81.8803 62.0753 78.1116 62.3104C76.0865 68.0385 72.6388 73.1578 68.0921 77.1876H77.1876C77.9749 77.1876 78.73 77.5003 79.2868 78.0571C79.8435 78.6138 80.1563 79.3689 80.1563 80.1563C80.1563 80.9437 79.8435 81.6988 79.2868 82.2555C78.73 82.8123 77.9749 83.1251 77.1876 83.1251H11.8751C11.0877 83.1251 10.3326 82.8123 9.77586 82.2555C9.21911 81.6988 8.90633 80.9437 8.90633 80.1563C8.90633 79.3689 9.21911 78.6138 9.77586 78.0571C10.3326 77.5003 11.0877 77.1876 11.8751 77.1876H20.9817C17.194 73.8412 14.1591 69.7294 12.0776 65.1236C9.99609 60.5179 8.9152 55.523 8.90633 50.4688V32.6563C8.90633 31.8689 9.21911 31.1138 9.77586 30.5571C10.3326 30.0003 11.0877 29.6876 11.8751 29.6876H77.1876C81.1244 29.6876 84.8999 31.2514 87.6837 34.0352C90.4674 36.8189 92.0313 40.5945 92.0313 44.5313ZM74.2188 35.6251H14.8438V50.4688C14.8553 56.0429 16.4305 61.502 19.3905 66.2253C22.3504 70.9486 26.5763 74.7467 31.5876 77.1876H57.4751C62.4864 74.7467 66.7122 70.9486 69.6722 66.2253C72.6321 61.502 74.2074 56.0429 74.2188 50.4688V35.6251ZM86.0938 44.5313C86.0932 42.69 85.522 40.8942 84.4587 39.3909C83.3954 37.8877 81.8923 36.7509 80.1563 36.1372V50.4688C80.1541 52.3331 80.0052 54.1943 79.711 56.0352C81.553 55.491 83.1697 54.3659 84.32 52.8277C85.4703 51.2896 86.0925 49.4208 86.0938 47.5001V44.5313Z" fill="#322030"/>
</svg>
