<svg width="95" height="95" viewBox="0 0 95 95" fill="none" xmlns="http://www.w3.org/2000/svg">
<path d="M29.6876 20.7813V8.90632C29.6876 8.11895 30.0004 7.36384 30.5571 6.80709C31.1139 6.25034 31.869 5.93756 32.6564 5.93756C33.4437 5.93756 34.1988 6.25034 34.7556 6.80709C35.3123 7.36384 35.6251 8.11895 35.6251 8.90632V20.7813C35.6251 21.5687 35.3123 22.3238 34.7556 22.8806C34.1988 23.4373 33.4437 23.7501 32.6564 23.7501C31.869 23.7501 31.1139 23.4373 30.5571 22.8806C30.0004 22.3238 29.6876 21.5687 29.6876 20.7813ZM44.5314 23.7501C45.3187 23.7501 46.0739 23.4373 46.6306 22.8806C47.1874 22.3238 47.5001 21.5687 47.5001 20.7813V8.90632C47.5001 8.11895 47.1874 7.36384 46.6306 6.80709C46.0739 6.25034 45.3187 5.93756 44.5314 5.93756C43.744 5.93756 42.9889 6.25034 42.4322 6.80709C41.8754 7.36384 41.5626 8.11895 41.5626 8.90632V20.7813C41.5626 21.5687 41.8754 22.3238 42.4322 22.8806C42.9889 23.4373 43.744 23.7501 44.5314 23.7501ZM56.4064 23.7501C57.1938 23.7501 57.9489 23.4373 58.5056 22.8806C59.0624 22.3238 59.3751 21.5687 59.3751 20.7813V8.90632C59.3751 8.11895 59.0624 7.36384 58.5056 6.80709C57.9489 6.25034 57.1938 5.93756 56.4064 5.93756C55.619 5.93756 54.8639 6.25034 54.3072 6.80709C53.7504 7.36384 53.4376 8.11895 53.4376 8.90632V20.7813C53.4376 21.5687 53.7504 22.3238 54.3072 22.8806C54.8639 23.4373 55.619 23.7501 56.4064 23.7501ZM92.0314 44.5314V47.5001C92.0303 51.2762 90.59 54.9098 88.004 57.6614C85.4179 60.4129 81.8804 62.0754 78.1117 62.3105C76.0866 68.0386 72.6389 73.1579 68.0922 77.1877H77.1877C77.975 77.1877 78.7301 77.5004 79.2869 78.0572C79.8436 78.6139 80.1564 79.369 80.1564 80.1564C80.1564 80.9438 79.8436 81.6989 79.2869 82.2556C78.7301 82.8124 77.975 83.1252 77.1877 83.1252H11.8751C11.0877 83.1252 10.3326 82.8124 9.77587 82.2556C9.21912 81.6989 8.90634 80.9438 8.90634 80.1564C8.90634 79.369 9.21912 78.6139 9.77587 78.0572C10.3326 77.5004 11.0877 77.1877 11.8751 77.1877H20.9817C17.194 73.8412 14.1592 69.7294 12.0776 65.1237C9.9961 60.518 8.91521 55.5231 8.90634 50.4689V32.6563C8.90634 31.869 9.21912 31.1139 9.77587 30.5571C10.3326 30.0004 11.0877 29.6876 11.8751 29.6876H77.1877C81.1245 29.6876 84.9001 31.2515 87.6838 34.0352C90.4675 36.819 92.0314 40.5945 92.0314 44.5314ZM74.2189 35.6251H14.8438V50.4689C14.8553 56.043 16.4305 61.5021 19.3905 66.2254C22.3504 70.9487 26.5763 74.7468 31.5876 77.1877H57.4751C62.4864 74.7468 66.7123 70.9487 69.6723 66.2254C72.6322 61.5021 74.2075 56.043 74.2189 50.4689V35.6251ZM86.0939 44.5314C86.0934 42.6901 85.5221 40.8942 84.4588 39.391C83.3955 37.8877 81.8924 36.751 80.1564 36.1372V50.4689C80.1542 52.3331 80.0053 54.1944 79.7111 56.0353C81.5531 55.4911 83.1698 54.366 84.3201 52.8278C85.4704 51.2896 86.0926 49.4208 86.0939 47.5001V44.5314Z" fill="#322030"/>
</svg>
