<svg width="16" height="16" viewBox="0 0 16 16" fill="none" xmlns="http://www.w3.org/2000/svg">
<path d="M7.99994 4.99992C7.40659 4.99992 6.82656 5.17586 6.33321 5.50551C5.83986 5.83516 5.45534 6.3037 5.22828 6.85188C5.00122 7.40006 4.9418 8.00326 5.05756 8.58521C5.17332 9.16716 5.45904 9.70171 5.8786 10.1213C6.29816 10.5408 6.83271 10.8266 7.41466 10.9423C7.99661 11.0581 8.59981 10.9987 9.14799 10.7716C9.69618 10.5445 10.1647 10.16 10.4944 9.66666C10.824 9.17331 11 8.59328 11 7.99994C10.9991 7.20454 10.6828 6.44195 10.1204 5.87952C9.55792 5.31708 8.79534 5.00074 7.99994 4.99992ZM7.99994 9.49995C7.70326 9.49995 7.41325 9.41197 7.16658 9.24715C6.9199 9.08233 6.72764 8.84806 6.61411 8.57396C6.50058 8.29987 6.47087 7.99827 6.52875 7.7073C6.58663 7.41633 6.72949 7.14905 6.93927 6.93927C7.14905 6.72949 7.41633 6.58663 7.7073 6.52875C7.99827 6.47087 8.29987 6.50058 8.57396 6.61411C8.84806 6.72764 9.08233 6.9199 9.24715 7.16658C9.41197 7.41325 9.49995 7.70326 9.49995 7.99994C9.49995 8.39776 9.34191 8.7793 9.0606 9.0606C8.7793 9.34191 8.39776 9.49995 7.99994 9.49995ZM11 1.24989H4.99992C4.0057 1.25105 3.05254 1.64651 2.34953 2.34953C1.64651 3.05254 1.25105 4.0057 1.24989 4.99992V11C1.25105 11.9942 1.64651 12.9473 2.34953 13.6503C3.05254 14.3534 4.0057 14.7488 4.99992 14.75H11C11.9942 14.7488 12.9473 14.3534 13.6503 13.6503C14.3534 12.9473 14.7488 11.9942 14.75 11V4.99992C14.7488 4.0057 14.3534 3.05254 13.6503 2.34953C12.9473 1.64651 11.9942 1.25105 11 1.24989ZM13.25 11C13.25 11.5967 13.0129 12.169 12.591 12.591C12.169 13.0129 11.5967 13.25 11 13.25H4.99992C4.40318 13.25 3.83087 13.0129 3.40892 12.591C2.98696 12.169 2.7499 11.5967 2.7499 11V4.99992C2.7499 4.40318 2.98696 3.83087 3.40892 3.40892C3.83087 2.98696 4.40318 2.7499 4.99992 2.7499H11C11.5967 2.7499 12.169 2.98696 12.591 3.40892C13.0129 3.83087 13.25 4.40318 13.25 4.99992V11ZM12.25 4.74991C12.25 4.9477 12.1913 5.14104 12.0814 5.30549C11.9716 5.46994 11.8154 5.59811 11.6326 5.6738C11.4499 5.74949 11.2488 5.76929 11.0549 5.73071C10.8609 5.69212 10.6827 5.59688 10.5428 5.45703C10.403 5.31717 10.3078 5.13899 10.2692 4.94501C10.2306 4.75102 10.2504 4.54996 10.3261 4.36723C10.4018 4.1845 10.5299 4.02832 10.6944 3.91844C10.8588 3.80856 11.0522 3.74991 11.25 3.74991C11.5152 3.74991 11.7695 3.85527 11.9571 4.0428C12.1446 4.23034 12.25 4.4847 12.25 4.74991Z" fill="#322030"/>
</svg>
