<svg width="16" height="16" viewBox="0 0 16 16" fill="none" xmlns="http://www.w3.org/2000/svg">
<path d="M14 4.24991C13.2709 4.24908 12.5719 3.95908 12.0563 3.44353C11.5408 2.92798 11.2508 2.22898 11.25 1.49989C11.25 1.30097 11.1709 1.11021 11.0303 0.969555C10.8896 0.828902 10.6989 0.749884 10.5 0.749884H7.99994C7.80102 0.749884 7.61026 0.828902 7.4696 0.969555C7.32895 1.11021 7.24993 1.30097 7.24993 1.49989V9.74994C7.24981 9.9289 7.20168 10.1045 7.11055 10.2585C7.01941 10.4126 6.88862 10.5393 6.73182 10.6255C6.57502 10.7118 6.39794 10.7543 6.21908 10.7488C6.04021 10.7433 5.8661 10.6899 5.71491 10.5941C5.56373 10.4984 5.441 10.3638 5.35954 10.2045C5.27808 10.0452 5.24086 9.86689 5.25178 9.68828C5.2627 9.50966 5.32135 9.33724 5.42161 9.18901C5.52187 9.04078 5.66007 8.92218 5.8218 8.84556C5.94993 8.78468 6.05816 8.68871 6.13394 8.56879C6.20972 8.44887 6.24994 8.30992 6.24992 8.16806V5.49991C6.24988 5.39034 6.22583 5.2821 6.17945 5.18281C6.13308 5.08353 6.06551 4.99561 5.9815 4.92525C5.8975 4.85489 5.79909 4.80379 5.69322 4.77555C5.58734 4.74731 5.47656 4.74261 5.36867 4.76179C4.21349 4.9731 3.17078 5.58747 2.42615 6.49555C1.66788 7.41075 1.25198 8.56143 1.24989 9.74994C1.24989 11.076 1.77668 12.3478 2.71437 13.2855C3.65206 14.2232 4.92383 14.75 6.24992 14.75C7.57602 14.75 8.84779 14.2232 9.78548 13.2855C10.7232 12.3478 11.25 11.076 11.25 9.74994V7.6668C12.1152 8.05297 13.0524 8.2517 14 8.24993C14.1989 8.24993 14.3897 8.17091 14.5303 8.03026C14.671 7.88961 14.75 7.69884 14.75 7.49993V4.99991C14.75 4.801 14.671 4.61023 14.5303 4.46958C14.3897 4.32892 14.1989 4.24991 14 4.24991ZM13.25 6.6968C12.4149 6.57866 11.6211 6.25881 10.9375 5.76492C10.8253 5.68439 10.6932 5.63638 10.5555 5.62615C10.4179 5.61593 10.28 5.64389 10.1573 5.70696C10.0345 5.77003 9.93147 5.86577 9.85961 5.98363C9.78774 6.10148 9.7498 6.23688 9.74995 6.37492V9.74994C9.74995 10.6782 9.3812 11.5685 8.72481 12.2248C8.06843 12.8812 7.17819 13.25 6.24992 13.25C5.32166 13.25 4.43142 12.8812 3.77503 12.2248C3.11865 11.5685 2.7499 10.6782 2.7499 9.74994C2.75221 9.08029 2.94042 8.42443 3.29355 7.85545C3.64668 7.28647 4.15086 6.82671 4.74991 6.52742V7.74993C4.409 8.00562 4.1391 8.3442 3.96585 8.73354C3.7926 9.12288 3.72174 9.55004 3.76001 9.97446C3.79828 10.3989 3.94441 10.8065 4.18451 11.1585C4.42461 11.5106 4.75073 11.7954 5.13188 11.986C5.51304 12.1766 5.93658 12.2666 6.3623 12.2474C6.78801 12.2283 7.20176 12.1006 7.56426 11.8766C7.92676 11.6525 8.22598 11.3396 8.43349 10.9674C8.64101 10.5952 8.74994 10.1761 8.74994 9.74994V2.24989H9.8162C9.97108 3.10369 10.3828 3.8899 10.9964 4.50348C11.61 5.11705 12.3962 5.52879 13.25 5.68367V6.6968Z" fill="#322030"/>
</svg>
