<svg width="16" height="16" viewBox="0 0 16 16" fill="none" xmlns="http://www.w3.org/2000/svg">
<path d="M7.99994 1.24989C6.66491 1.24989 5.35985 1.64577 4.24982 2.38748C3.13978 3.12918 2.27461 4.1834 1.76371 5.41681C1.25282 6.65022 1.11914 8.00742 1.37959 9.3168C1.64005 10.6262 2.28293 11.8289 3.22694 12.7729C4.17095 13.7169 5.37369 14.3598 6.68307 14.6203C7.99245 14.8807 9.34966 14.7471 10.5831 14.2362C11.8165 13.7253 12.8707 12.8601 13.6124 11.7501C14.3541 10.64 14.75 9.33497 14.75 7.99994C14.748 6.21032 14.0362 4.49458 12.7707 3.22913C11.5053 1.96368 9.78955 1.25188 7.99994 1.24989ZM8.74994 13.1956V9.74995H9.99995C10.1989 9.74995 10.3896 9.67093 10.5303 9.53028C10.6709 9.38962 10.75 9.19886 10.75 8.99994C10.75 8.80103 10.6709 8.61026 10.5303 8.46961C10.3896 8.32896 10.1989 8.24994 9.99995 8.24994H8.74994V6.99993C8.74994 6.80102 8.82896 6.61025 8.96962 6.4696C9.11027 6.32894 9.30104 6.24992 9.49995 6.24992H10.5C10.6989 6.24992 10.8896 6.17091 11.0303 6.03025C11.1709 5.8896 11.25 5.69883 11.25 5.49992C11.25 5.30101 11.1709 5.11024 11.0303 4.96959C10.8896 4.82893 10.6989 4.74991 10.5 4.74991H9.49995C8.90321 4.74991 8.33091 4.98697 7.90895 5.40893C7.48699 5.83089 7.24993 6.40319 7.24993 6.99993V8.24994H5.99993C5.80101 8.24994 5.61025 8.32896 5.46959 8.46961C5.32894 8.61026 5.24992 8.80103 5.24992 8.99994C5.24992 9.19886 5.32894 9.38962 5.46959 9.53028C5.61025 9.67093 5.80101 9.74995 5.99993 9.74995H7.24993V13.1956C5.93623 13.006 4.74311 12.3258 3.91069 11.292C3.07827 10.2581 2.66833 8.94735 2.76338 7.62344C2.85844 6.29954 3.45142 5.06077 4.423 4.15645C5.39458 3.25213 6.67263 2.74937 7.99994 2.74937C9.32725 2.74937 10.6053 3.25213 11.5769 4.15645C12.5485 5.06077 13.1414 6.29954 13.2365 7.62344C13.3315 8.94735 12.9216 10.2581 12.0892 11.292C11.2568 12.3258 10.0636 13.006 8.74994 13.1956Z" fill="#322030"/>
</svg>
