<svg width="16" height="16" viewBox="0 0 16 16" fill="none" xmlns="http://www.w3.org/2000/svg">
<path d="M13.5 1.24989H2.4999C2.16838 1.24989 1.85043 1.38159 1.61601 1.61601C1.38159 1.85043 1.24989 2.16838 1.24989 2.4999V13.5C1.24989 13.8315 1.38159 14.1494 1.61601 14.3839C1.85043 14.6183 2.16838 14.75 2.4999 14.75H13.5C13.8315 14.75 14.1494 14.6183 14.3839 14.3839C14.6183 14.1494 14.75 13.8315 14.75 13.5V2.4999C14.75 2.16838 14.6183 1.85043 14.3839 1.61601C14.1494 1.38159 13.8315 1.24989 13.5 1.24989ZM13.25 13.25H2.7499V2.7499H13.25V13.25ZM6.99993 11V7.49993C7.00008 7.34407 7.04878 7.19212 7.13927 7.06521C7.22975 6.93831 7.35753 6.84274 7.50484 6.79181C7.65214 6.74087 7.81166 6.7371 7.96121 6.781C8.11076 6.82491 8.24292 6.91432 8.33931 7.0368C8.72026 6.83713 9.14627 6.73911 9.57617 6.75223C10.0061 6.76534 10.4253 6.88914 10.7934 7.11166C11.1614 7.33419 11.4659 7.6479 11.6772 8.02248C11.8886 8.39707 11.9998 8.81984 12 9.24994V11C12 11.1989 11.9209 11.3896 11.7803 11.5303C11.6396 11.6709 11.4489 11.75 11.25 11.75C11.051 11.75 10.8603 11.6709 10.7196 11.5303C10.579 11.3896 10.5 11.1989 10.5 11V9.24994C10.5 8.98473 10.3946 8.73037 10.2071 8.54283C10.0195 8.3553 9.76516 8.24994 9.49995 8.24994C9.23473 8.24994 8.98037 8.3553 8.79283 8.54283C8.6053 8.73037 8.49994 8.98473 8.49994 9.24994V11C8.49994 11.1989 8.42092 11.3896 8.28027 11.5303C8.13961 11.6709 7.94885 11.75 7.74993 11.75C7.55102 11.75 7.36025 11.6709 7.2196 11.5303C7.07895 11.3896 6.99993 11.1989 6.99993 11ZM5.99992 7.49993V11C5.99992 11.1989 5.9209 11.3896 5.78025 11.5303C5.6396 11.6709 5.44883 11.75 5.24992 11.75C5.051 11.75 4.86024 11.6709 4.71958 11.5303C4.57893 11.3896 4.49991 11.1989 4.49991 11V7.49993C4.49991 7.30102 4.57893 7.11025 4.71958 6.9696C4.86024 6.82895 5.051 6.74993 5.24992 6.74993C5.44883 6.74993 5.6396 6.82895 5.78025 6.9696C5.9209 7.11025 5.99992 7.30102 5.99992 7.49993ZM4.24991 4.99992C4.24991 4.80213 4.30856 4.60879 4.41844 4.44434C4.52833 4.27989 4.6845 4.15172 4.86723 4.07603C5.04996 4.00034 5.25103 3.98054 5.44501 4.01912C5.63899 4.05771 5.81718 4.15295 5.95703 4.29281C6.09688 4.43266 6.19212 4.61084 6.23071 4.80482C6.2693 4.99881 6.24949 5.19987 6.1738 5.3826C6.09812 5.56533 5.96994 5.72151 5.80549 5.83139C5.64104 5.94127 5.4477 5.99992 5.24992 5.99992C4.9847 5.99992 4.73034 5.89457 4.54281 5.70703C4.35527 5.51949 4.24991 5.26513 4.24991 4.99992Z" fill="#322030"/>
</svg>
