<svg width="95" height="95" viewBox="0 0 95 95" fill="none" xmlns="http://www.w3.org/2000/svg">
<path d="M79.2879 30.5558L58.5067 9.77457C58.2307 9.49897 57.9032 9.28042 57.5428 9.13143C57.1825 8.98243 56.7962 8.9059 56.4063 8.90621H20.7813C19.2065 8.90621 17.6963 9.53176 16.5828 10.6453C15.4693 11.7588 14.8438 13.269 14.8438 14.8437V41.5625C14.8438 42.3498 15.1565 43.1049 15.7133 43.6617C16.27 44.2184 17.0251 44.5312 17.8125 44.5312C18.5999 44.5312 19.355 44.2184 19.9117 43.6617C20.4685 43.1049 20.7813 42.3498 20.7813 41.5625V14.8437H53.4375V32.6562C53.4375 33.4436 53.7503 34.1987 54.307 34.7554C54.8638 35.3122 55.6189 35.625 56.4063 35.625H74.2188V80.1562H62.3438C61.5564 80.1562 60.8013 80.469 60.2445 81.0257C59.6878 81.5825 59.375 82.3376 59.375 83.125C59.375 83.9123 59.6878 84.6674 60.2445 85.2242C60.8013 85.7809 61.5564 86.0937 62.3438 86.0937H74.2188C75.7935 86.0937 77.3037 85.4682 78.4172 84.3547C79.5307 83.2412 80.1563 81.7309 80.1563 80.1562V32.6562C80.1566 32.2662 80.08 31.88 79.931 31.5196C79.7821 31.1592 79.5635 30.8317 79.2879 30.5558ZM59.375 19.0408L70.0217 29.6875H59.375V19.0408ZM23.75 53.4375H17.8125C17.0251 53.4375 16.27 53.7502 15.7133 54.307C15.1565 54.8637 14.8438 55.6188 14.8438 56.4062V77.1875C14.8438 77.9748 15.1565 78.7299 15.7133 79.2867C16.27 79.8434 17.0251 80.1562 17.8125 80.1562C18.5999 80.1562 19.355 79.8434 19.9117 79.2867C20.4685 78.7299 20.7813 77.9748 20.7813 77.1875V74.2187H23.75C26.5058 74.2187 29.1487 73.124 31.0973 71.1754C33.0459 69.2267 34.1406 66.5838 34.1406 63.8281C34.1406 61.0723 33.0459 58.4294 31.0973 56.4808C29.1487 54.5322 26.5058 53.4375 23.75 53.4375ZM23.75 68.2812H20.7813V59.375H23.75C24.9311 59.375 26.0637 59.8441 26.8988 60.6793C27.734 61.5144 28.2031 62.647 28.2031 63.8281C28.2031 65.0091 27.734 66.1418 26.8988 66.9769C26.0637 67.812 24.9311 68.2812 23.75 68.2812ZM57.4379 57.9796L50.4688 69.1125V77.1875C50.4688 77.9748 50.156 78.7299 49.5992 79.2867C49.0425 79.8434 48.2874 80.1562 47.5 80.1562C46.7126 80.1562 45.9575 79.8434 45.4008 79.2867C44.844 78.7299 44.5313 77.9748 44.5313 77.1875V69.131L37.5621 57.9982C37.3419 57.6678 37.1901 57.2965 37.1159 56.9064C37.0417 56.5162 37.0466 56.1152 37.1301 55.727C37.2137 55.3387 37.3743 54.9712 37.6024 54.6462C37.8306 54.3211 38.1216 54.0451 38.4583 53.8346C38.795 53.624 39.1705 53.4831 39.5627 53.4203C39.9548 53.3575 40.3555 53.3739 40.7411 53.4687C41.1268 53.5635 41.4895 53.7348 41.8078 53.9722C42.1261 54.2097 42.3935 54.5086 42.5942 54.8513L47.5 62.6814L52.4059 54.8328C52.6066 54.4901 52.874 54.1912 53.1923 53.9537C53.5105 53.7162 53.8732 53.545 54.2589 53.4502C54.6445 53.3554 55.0452 53.3389 55.4374 53.4017C55.8295 53.4646 56.205 53.6055 56.5417 53.816C56.8784 54.0266 57.1694 54.3026 57.3976 54.6276C57.6257 54.9527 57.7863 55.3202 57.8699 55.7084C57.9535 56.0966 57.9583 56.4977 57.8841 56.8878C57.8099 57.2779 57.6582 57.6492 57.4379 57.9796Z" fill="#322030"/>
</svg>
