<svg width="95" height="95" viewBox="0 0 95 95" fill="none" xmlns="http://www.w3.org/2000/svg">
<path d="M79.2879 30.556L58.5066 9.7747C58.2307 9.4991 57.9032 9.28056 57.5428 9.13156C57.1824 8.98257 56.7962 8.90604 56.4062 8.90634H20.7812C19.2064 8.90634 17.6962 9.5319 16.5827 10.6454C15.4692 11.7589 14.8437 13.2691 14.8437 14.8439V41.5626C14.8437 42.35 15.1564 43.1051 15.7132 43.6619C16.2699 44.2186 17.025 44.5314 17.8124 44.5314C18.5998 44.5314 19.3549 44.2186 19.9116 43.6619C20.4684 43.1051 20.7812 42.35 20.7812 41.5626V14.8439H53.4375V32.6564C53.4375 33.4437 53.7502 34.1988 54.307 34.7556C54.8637 35.3123 55.6188 35.6251 56.4062 35.6251H74.2187V80.1564H62.3437C61.5564 80.1564 60.8012 80.4692 60.2445 81.026C59.6877 81.5827 59.375 82.3378 59.375 83.1252C59.375 83.9125 59.6877 84.6677 60.2445 85.2244C60.8012 85.7812 61.5564 86.0939 62.3437 86.0939H74.2187C75.7935 86.0939 77.3037 85.4684 78.4172 84.3549C79.5307 83.2414 80.1562 81.7312 80.1562 80.1564V32.6564C80.1565 32.2664 80.08 31.8802 79.931 31.5198C79.782 31.1594 79.5635 30.8319 79.2879 30.556ZM59.375 19.0409L70.0217 29.6876H59.375V19.0409ZM23.7499 53.4376H17.8124C17.025 53.4376 16.2699 53.7504 15.7132 54.3072C15.1564 54.8639 14.8437 55.619 14.8437 56.4064V77.1877C14.8437 77.975 15.1564 78.7302 15.7132 79.2869C16.2699 79.8437 17.025 80.1564 17.8124 80.1564C18.5998 80.1564 19.3549 79.8437 19.9116 79.2869C20.4684 78.7302 20.7812 77.975 20.7812 77.1877V74.2189H23.7499C26.5057 74.2189 29.1486 73.1242 31.0972 71.1756C33.0458 69.227 34.1406 66.5841 34.1406 63.8283C34.1406 61.0725 33.0458 58.4296 31.0972 56.481C29.1486 54.5324 26.5057 53.4376 23.7499 53.4376ZM23.7499 68.2814H20.7812V59.3752H23.7499C24.931 59.3752 26.0636 59.8443 26.8988 60.6795C27.7339 61.5146 28.2031 62.6472 28.2031 63.8283C28.2031 65.0093 27.7339 66.142 26.8988 66.9771C26.0636 67.8122 24.931 68.2814 23.7499 68.2814ZM57.4379 57.9798L50.4687 69.1127V77.1877C50.4687 77.975 50.1559 78.7302 49.5992 79.2869C49.0424 79.8437 48.2873 80.1564 47.5 80.1564C46.7126 80.1564 45.9575 79.8437 45.4007 79.2869C44.844 78.7302 44.5312 77.975 44.5312 77.1877V69.1312L37.562 57.9984C37.3418 57.668 37.1901 57.2967 37.1159 56.9066C37.0417 56.5164 37.0465 56.1154 37.1301 55.7271C37.2136 55.3389 37.3742 54.9714 37.6024 54.6464C37.8305 54.3213 38.1215 54.0453 38.4582 53.8348C38.7949 53.6242 39.1705 53.4833 39.5626 53.4205C39.9547 53.3577 40.3554 53.3741 40.7411 53.4689C41.1267 53.5637 41.4894 53.7349 41.8077 53.9724C42.126 54.2099 42.3934 54.5088 42.5941 54.8515L47.5 62.6816L52.4058 54.833C52.6065 54.4903 52.8739 54.1914 53.1922 53.9539C53.5105 53.7164 53.8732 53.5452 54.2588 53.4504C54.6445 53.3556 55.0452 53.3391 55.4373 53.4019C55.8294 53.4648 56.205 53.6056 56.5417 53.8162C56.8784 54.0268 57.1694 54.3027 57.3975 54.6278C57.6257 54.9528 57.7863 55.3204 57.8698 55.7086C57.9534 56.0968 57.9582 56.4979 57.884 56.888C57.8098 57.2781 57.6581 57.6494 57.4379 57.9798Z" fill="#322030"/>
</svg>
