<svg width="95" height="95" viewBox="0 0 95 95" fill="none" xmlns="http://www.w3.org/2000/svg">
<path d="M59.375 14.8437C53.3102 14.8483 47.3662 16.5401 42.2079 19.7297C37.0495 22.9194 32.8802 27.4811 30.1662 32.9048C26.9376 32.4339 23.6465 32.6334 20.4983 33.4907C17.3502 34.348 14.4124 35.8448 11.8683 37.8877C9.32419 39.9307 7.22833 42.4759 5.71142 45.3647C4.19452 48.2535 3.28912 51.4238 3.05169 54.678C2.81427 57.9322 3.24991 61.2003 4.33146 64.2787C5.413 67.3571 7.11724 70.1795 9.33787 72.5701C11.5585 74.9607 14.2479 76.868 17.2383 78.1732C20.2287 79.4784 23.456 80.1534 26.7188 80.1562H59.375C68.036 80.1562 76.3422 76.7156 82.4665 70.5914C88.5907 64.4671 92.0313 56.1609 92.0313 47.4999C92.0313 38.839 88.5907 30.5327 82.4665 24.4085C76.3422 18.2842 68.036 14.8437 59.375 14.8437ZM59.375 74.2187H26.7188C21.9946 74.2187 17.4639 72.342 14.1234 69.0015C10.7829 65.661 8.90628 61.1303 8.90628 56.4062C8.90628 51.682 10.7829 47.1513 14.1234 43.8108C17.4639 40.4704 21.9946 38.5937 26.7188 38.5937C27.127 38.5937 27.5352 38.5937 27.9397 38.6345C27.1278 41.5196 26.717 44.5028 26.7188 47.4999C26.7188 48.2873 27.0316 49.0424 27.5883 49.5992C28.1451 50.1559 28.9002 50.4687 29.6875 50.4687C30.4749 50.4687 31.23 50.1559 31.7867 49.5992C32.3435 49.0424 32.6563 48.2873 32.6563 47.4999C32.6563 42.2155 34.2233 37.0497 37.1592 32.6558C40.0951 28.2619 44.268 24.8373 49.1502 22.815C54.0324 20.7928 59.4047 20.2636 64.5876 21.2946C69.7705 22.3255 74.5313 24.8702 78.268 28.6069C82.0047 32.3436 84.5494 37.1044 85.5804 42.2874C86.6113 47.4703 86.0822 52.8425 84.0599 57.7247C82.0376 62.607 78.613 66.7799 74.2192 69.7158C69.8253 72.6516 64.6595 74.2187 59.375 74.2187Z" fill="#322030"/>
</svg>
