<svg width="95" height="95" viewBox="0 0 95 95" fill="none" xmlns="http://www.w3.org/2000/svg">
<path d="M59.3749 14.8437C53.3101 14.8483 47.3661 16.5401 42.2078 19.7297C37.0494 22.9194 32.8801 27.4811 30.1661 32.9048C26.9374 32.4339 23.6464 32.6334 20.4982 33.4907C17.35 34.348 14.4123 35.8448 11.8682 37.8877C9.32407 39.9307 7.2282 42.4759 5.7113 45.3647C4.1944 48.2535 3.28899 51.4238 3.05157 54.678C2.81414 57.9322 3.24979 61.2003 4.33133 64.2787C5.41287 67.3571 7.11711 70.1795 9.33775 72.5701C11.5584 74.9607 14.2478 76.868 17.2382 78.1732C20.2286 79.4784 23.4558 80.1534 26.7187 80.1562H59.3749C68.0359 80.1562 76.3421 76.7156 82.4663 70.5914C88.5906 64.4671 92.0311 56.1609 92.0311 47.4999C92.0311 38.839 88.5906 30.5327 82.4663 24.4085C76.3421 18.2842 68.0359 14.8437 59.3749 14.8437ZM59.3749 74.2187H26.7187C21.9945 74.2187 17.4638 72.342 14.1233 69.0015C10.7828 65.661 8.90616 61.1303 8.90616 56.4062C8.90616 51.682 10.7828 47.1513 14.1233 43.8108C17.4638 40.4704 21.9945 38.5937 26.7187 38.5937C27.1269 38.5937 27.5351 38.5937 27.9396 38.6345C27.1277 41.5196 26.7169 44.5028 26.7187 47.4999C26.7187 48.2873 27.0314 49.0424 27.5882 49.5992C28.1449 50.1559 28.9 50.4687 29.6874 50.4687C30.4748 50.4687 31.2299 50.1559 31.7866 49.5992C32.3434 49.0424 32.6562 48.2873 32.6562 47.4999C32.6562 42.2155 34.2232 37.0497 37.1591 32.6558C40.095 28.2619 44.2679 24.8373 49.1501 22.815C54.0323 20.7928 59.4045 20.2636 64.5875 21.2946C69.7704 22.3255 74.5312 24.8702 78.2679 28.6069C82.0046 32.3436 84.5493 37.1044 85.5802 42.2874C86.6112 47.4703 86.0821 52.8425 84.0598 57.7247C82.0375 62.607 78.6129 66.7799 74.219 69.7158C69.8252 72.6516 64.6594 74.2187 59.3749 74.2187Z" fill="#322030"/>
</svg>
