<svg width="94" height="94" viewBox="0 0 94 94" fill="none" xmlns="http://www.w3.org/2000/svg">
<path d="M73.4376 17.625H49.9376V5.87503C49.9376 5.09596 49.6281 4.34879 49.0772 3.7979C48.5263 3.24702 47.7792 2.93753 47.0001 2.93753C46.221 2.93753 45.4739 3.24702 44.923 3.7979C44.3721 4.34879 44.0626 5.09596 44.0626 5.87503V17.625H20.5626C17.4463 17.625 14.4576 18.863 12.2541 21.0665C10.0505 23.2701 8.81259 26.2587 8.81259 29.375V70.5C8.81259 73.6163 10.0505 76.605 12.2541 78.8085C14.4576 81.0121 17.4463 82.25 20.5626 82.25H73.4376C76.5539 82.25 79.5425 81.0121 81.7461 78.8085C83.9496 76.605 85.1876 73.6163 85.1876 70.5V29.375C85.1876 26.2587 83.9496 23.2701 81.7461 21.0665C79.5425 18.863 76.5539 17.625 73.4376 17.625ZM79.3126 70.5C79.3126 72.0582 78.6936 73.5525 77.5918 74.6543C76.4901 75.756 74.9957 76.375 73.4376 76.375H20.5626C19.0044 76.375 17.5101 75.756 16.4083 74.6543C15.3066 73.5525 14.6876 72.0582 14.6876 70.5V29.375C14.6876 27.8169 15.3066 26.3226 16.4083 25.2208C17.5101 24.119 19.0044 23.5 20.5626 23.5H73.4376C74.9957 23.5 76.4901 24.119 77.5918 25.2208C78.6936 26.3226 79.3126 27.8169 79.3126 29.375V70.5ZM60.2188 49.9375H33.7813C31.0546 49.9375 28.4395 51.0207 26.5114 52.9488C24.5833 54.8769 23.5001 57.492 23.5001 60.2188C23.5001 62.9455 24.5833 65.5606 26.5114 67.4887C28.4395 69.4168 31.0546 70.5 33.7813 70.5H60.2188C62.9456 70.5 65.5607 69.4168 67.4888 67.4887C69.4169 65.5606 70.5001 62.9455 70.5001 60.2188C70.5001 57.492 69.4169 54.8769 67.4888 52.9488C65.5607 51.0207 62.9456 49.9375 60.2188 49.9375ZM51.4063 55.8125V64.625H42.5938V55.8125H51.4063ZM29.3751 60.2188C29.3751 59.0502 29.8393 57.9294 30.6656 57.1031C31.492 56.2768 32.6127 55.8125 33.7813 55.8125H36.7188V64.625H33.7813C32.6127 64.625 31.492 64.1608 30.6656 63.3345C29.8393 62.5081 29.3751 61.3874 29.3751 60.2188ZM60.2188 64.625H57.2813V55.8125H60.2188C61.3874 55.8125 62.5082 56.2768 63.3345 57.1031C64.1609 57.9294 64.6251 59.0502 64.6251 60.2188C64.6251 61.3874 64.1609 62.5081 63.3345 63.3345C62.5082 64.1608 61.3874 64.625 60.2188 64.625ZM26.4376 39.6563C26.4376 38.7848 26.696 37.9329 27.1802 37.2083C27.6643 36.4837 28.3525 35.9189 29.1576 35.5854C29.9628 35.2519 30.8487 35.1647 31.7035 35.3347C32.5582 35.5047 33.3433 35.9244 33.9595 36.5406C34.5758 37.1568 34.9954 37.9419 35.1654 38.7967C35.3354 39.6514 35.2482 40.5373 34.9147 41.3425C34.5812 42.1476 34.0164 42.8358 33.2918 43.3199C32.5672 43.8041 31.7153 44.0625 30.8438 44.0625C29.6752 44.0625 28.5545 43.5983 27.7281 42.772C26.9018 41.9456 26.4376 40.8249 26.4376 39.6563ZM58.7501 39.6563C58.7501 38.7848 59.0085 37.9329 59.4927 37.2083C59.9768 36.4837 60.665 35.9189 61.4701 35.5854C62.2753 35.2519 63.1612 35.1647 64.016 35.3347C64.8707 35.5047 65.6558 35.9244 66.272 36.5406C66.8882 37.1568 67.3079 37.9419 67.4779 38.7967C67.6479 39.6514 67.5607 40.5373 67.2272 41.3425C66.8937 42.1476 66.3289 42.8358 65.6043 43.3199C64.8797 43.8041 64.0278 44.0625 63.1563 44.0625C61.9877 44.0625 60.867 43.5983 60.0407 42.772C59.2143 41.9456 58.7501 40.8249 58.7501 39.6563Z" fill="#322030"/>
</svg>
