<svg width="94" height="94" viewBox="0 0 94 94" fill="none" xmlns="http://www.w3.org/2000/svg">
<path d="M44.0624 49.9374V35.2499C44.0624 34.4708 44.3719 33.7237 44.9228 33.1728C45.4736 32.6219 46.2208 32.3124 46.9999 32.3124C47.7789 32.3124 48.5261 32.6219 49.077 33.1728C49.6279 33.7237 49.9374 34.4708 49.9374 35.2499V49.9374C49.9374 50.7165 49.6279 51.4636 49.077 52.0145C48.5261 52.5654 47.7789 52.8749 46.9999 52.8749C46.2208 52.8749 45.4736 52.5654 44.9228 52.0145C44.3719 51.4636 44.0624 50.7165 44.0624 49.9374ZM46.9999 67.5624C47.8713 67.5624 48.7232 67.304 49.4479 66.8198C50.1725 66.3356 50.7372 65.6475 51.0707 64.8423C51.4042 64.0372 51.4915 63.1513 51.3215 62.2965C51.1514 61.4418 50.7318 60.6567 50.1156 60.0405C49.4993 59.4242 48.7142 59.0046 47.8595 58.8346C47.0048 58.6645 46.1188 58.7518 45.3137 59.0853C44.5085 59.4188 43.8204 59.9836 43.3362 60.7082C42.852 61.4328 42.5936 62.2847 42.5936 63.1562C42.5936 64.3248 43.0579 65.4455 43.8842 66.2718C44.7105 67.0982 45.8313 67.5624 46.9999 67.5624ZM82.2499 20.5624V41.1249C82.2499 60.483 72.8793 72.2147 65.0178 78.6478C56.5504 85.5729 48.1271 87.9266 47.76 88.0221C47.2551 88.1594 46.7227 88.1594 46.2178 88.0221C45.8506 87.9266 37.4383 85.5729 28.96 78.6478C21.1205 72.2147 11.7499 60.483 11.7499 41.1249V20.5624C11.7499 19.0043 12.3688 17.5099 13.4706 16.4082C14.5724 15.3064 16.0667 14.6874 17.6249 14.6874H76.3749C77.933 14.6874 79.4274 15.3064 80.5291 16.4082C81.6309 17.5099 82.2499 19.0043 82.2499 20.5624ZM76.3749 20.5624H17.6249V41.1249C17.6249 54.821 22.6994 65.9137 32.7053 74.102C36.9656 77.5863 41.8036 80.2967 46.9999 82.1104C52.265 80.2646 57.1635 77.5052 61.4707 73.9588C71.3591 65.7852 76.3749 54.7365 76.3749 41.1249V20.5624Z" fill="#322030"/>
</svg>
