<svg width="94" height="94" viewBox="0 0 94 94" fill="none" xmlns="http://www.w3.org/2000/svg">
<path d="M44.0624 49.9375V35.25C44.0624 34.471 44.3719 33.7238 44.9228 33.1729C45.4736 32.622 46.2208 32.3125 46.9999 32.3125C47.7789 32.3125 48.5261 32.622 49.077 33.1729C49.6279 33.7238 49.9374 34.471 49.9374 35.25V49.9375C49.9374 50.7166 49.6279 51.4638 49.077 52.0147C48.5261 52.5655 47.7789 52.875 46.9999 52.875C46.2208 52.875 45.4736 52.5655 44.9228 52.0147C44.3719 51.4638 44.0624 50.7166 44.0624 49.9375ZM46.9999 67.5625C47.8713 67.5625 48.7232 67.3041 49.4479 66.8199C50.1725 66.3358 50.7372 65.6476 51.0707 64.8425C51.4042 64.0373 51.4915 63.1514 51.3215 62.2967C51.1514 61.4419 50.7318 60.6568 50.1156 60.0406C49.4993 59.4244 48.7142 59.0047 47.8595 58.8347C47.0048 58.6647 46.1188 58.7519 45.3137 59.0854C44.5085 59.4189 43.8204 59.9837 43.3362 60.7083C42.852 61.4329 42.5936 62.2848 42.5936 63.1563C42.5936 64.3249 43.0579 65.4456 43.8842 66.272C44.7105 67.0983 45.8313 67.5625 46.9999 67.5625ZM82.2499 20.5625V41.125C82.2499 60.4831 72.8793 72.2148 65.0178 78.6479C56.5504 85.5731 48.1271 87.9267 47.76 88.0222C47.2551 88.1596 46.7227 88.1596 46.2178 88.0222C45.8506 87.9267 37.4383 85.5731 28.96 78.6479C21.1205 72.2148 11.7499 60.4831 11.7499 41.125V20.5625C11.7499 19.0044 12.3688 17.5101 13.4706 16.4083C14.5724 15.3065 16.0667 14.6875 17.6249 14.6875H76.3749C77.933 14.6875 79.4274 15.3065 80.5291 16.4083C81.6309 17.5101 82.2499 19.0044 82.2499 20.5625ZM76.3749 20.5625H17.6249V41.125C17.6249 54.8211 22.6994 65.9138 32.7053 74.1021C36.9656 77.5864 41.8036 80.2968 46.9999 82.1105C52.265 80.2647 57.1635 77.5053 61.4707 73.9589C71.3591 65.7853 76.3749 54.7367 76.3749 41.125V20.5625Z" fill="#322030"/>
</svg>
